<svg xmlns="http://www.w3.org/2000/svg" viewBox="0 0 512 512" role="img" aria-label="db-manager icon">
  <rect width="512" height="512" rx="104" fill="#159957"/>
  <path fill="#ffffff" d="M142 158c0-41 51-74 114-74s114 33 114 74v196c0 41-51 74-114 74s-114-33-114-74V158Zm44 0c0 10 9 21 28 30 12 6 27 9 42 9s30-3 42-9c19-9 28-20 28-30s-9-21-28-30c-12-6-27-9-42-9s-30 3-42 9c-19 9-28 20-28 30Zm0 66v54c0 10 9 21 28 30 12 6 27 9 42 9s30-3 42-9c19-9 28-20 28-30v-54c-20 11-44 17-70 17s-50-6-70-17Zm0 120v10c0 10 9 21 28 30 12 6 27 9 42 9s30-3 42-9c19-9 28-20 28-30v-10c-20 11-44 17-70 17s-50-6-70-17Z"/>
</svg>
